<svg xmlns="http://www.w3.org/2000/svg" viewBox="0 0 43.71 8.58"><defs><style>.cls-1{fill:#b2d38d;}</style></defs><g id="Layer_2" data-name="Layer 2"><g id="Layer_1-2" data-name="Layer 1"><path class="cls-1" d="M0,8.58V8.2a1.08,1.08,0,0,0,.18,0,.54.54,0,0,0,.54-.53c0-.16,0-.32,0-.48v-7L.9.16H2.74A.21.21,0,0,1,3,.29l3,6.5a13.62,13.62,0,0,0,.63,1.27V1.34A.74.74,0,0,0,5.91.53L5.84.5V.17H6.93v8c.48.07.73-.14.73-.58V.18l.17,0H9.69a.24.24,0,0,1,.25.15c1.14,2.53,2.3,5.05,3.45,7.58.1.24.21.36.49.32a3.21,3.21,0,0,1,.54,0V.34H12.56a.76.76,0,0,0-.87.66s0,0,0,.06h-.32V0h5.29V8.2c.29,0,.56,0,.82,0a.49.49,0,0,0,.45-.47,1.93,1.93,0,0,0,0-.24V1.23c0-.35-.08-.6-.46-.71-.06,0-.08-.21-.12-.34h1V6.06c0,.49.19.68.68.68H22c.46,0,.66-.2.66-.68V.18h.9V.5c-.47.18-.53.27-.53.76V7.53c0,.5.18.67.68.67h.58v-8h3.54a2.12,2.12,0,0,1,2.09,1.56,2.12,2.12,0,0,1-1,2.38,4.3,4.3,0,0,1-.48.22c.18.41.37.81.55,1.22.37.82.75,1.63,1.12,2.45a.3.3,0,0,0,.33.22c.48,0,.67-.2.67-.69V.16h.73c.42,0,.83,0,1.25,0a.28.28,0,0,1,.31.19q1,2.16,2,4.3c.52,1.14,1,2.28,1.56,3.42a.31.31,0,0,0,.2.13,5.41,5.41,0,0,0,.57,0v-8h2.2v8h2.58c.57,0,.78-.16.92-.71h.34c0,.33,0,.66,0,1,0,0-.07.08-.11.09a.37.37,0,0,1-.15,0H0Zm31.46-.45a.76.76,0,0,0,.16,0,2.29,2.29,0,0,0,1.32-1c.22-.4.39-.82.59-1.23a.33.33,0,0,0,0-.32c-.51-1.1-1-2.2-1.52-3.31L31.5,1.06h0Zm-30.37,0a.78.78,0,0,0,.16,0,2.17,2.17,0,0,0,1.22-.9c.24-.39.41-.82.63-1.23a.61.61,0,0,0,0-.6C2.47,4,1.84,2.63,1.22,1.26c0-.07-.07-.13-.13-.24Zm7-7h0V8.14a2.09,2.09,0,0,0,1.34-.9,14.54,14.54,0,0,0,.72-1.42.39.39,0,0,0,0-.3c-.3-.68-.61-1.36-.92-2ZM26.31,4.51a2.39,2.39,0,0,0-1.56,1.8,7.37,7.37,0,0,0-.06,1.33.52.52,0,0,0,.57.56c.59,0,1.17,0,1.75,0h1ZM28.25,4a1.74,1.74,0,0,0,1.37-1.6A1.65,1.65,0,0,0,28.43.63,10.86,10.86,0,0,0,26.66.49ZM24.7,5.35a3.28,3.28,0,0,1,1.45-1.18l-1.42-3.1h0ZM3.43,6.11A4.14,4.14,0,0,1,2,8.19H4.38ZM34.76,8.2l-1-2.09A4.22,4.22,0,0,1,32.38,8.2Zm-23.42,0-1-2.09A4.24,4.24,0,0,1,9,8.2Z"/></g></g></svg>