<svg xmlns="http://www.w3.org/2000/svg" viewBox="0 0 39.95 8.43"><defs><style>.cls-1{fill:#d8c587;}</style></defs><g id="Layer_2" data-name="Layer 2"><g id="Layer_1-2" data-name="Layer 1"><path class="cls-1" d="M25.42,0h6.93V1.1h-.29a2.27,2.27,0,0,0-.29-.51.71.71,0,0,0-.45-.2c-1.21,0-2.41,0-3.62,0l-.09,0V8.05h3.7a.76.76,0,0,0,.87-.87v-2a.73.73,0,0,0-.81-.8h-.82c-.6,0-.8.15-1,.73h-.34c0-.34,0-.67,0-1,0,0,.12-.1.18-.1.68,0,1.36,0,2,0h1.06V7.82c0,.19,0,.26.23.25.37,0,.74,0,1.1,0a.28.28,0,0,0,.3-.18l1.65-3.62c.21-.48.43-.95.66-1.45L34.7,1.05c-.15-.14-.3-.29-.44-.44a.55.55,0,0,0-.64-.2.56.56,0,0,0-.35.59s0,.05,0,.1h-.33V0A9.64,9.64,0,0,1,34,.05a.76.76,0,0,1,.44.25c.68.66,1.35,1.34,2,2,.05,0,.08.11.15.2.15-.33.27-.6.4-.87.23-.5.45-1,.68-1.49,0-.06.11-.14.16-.14H40c-.13.3-.24.56-.36.81l-3.4,7.47a.23.23,0,0,1-.25.15H0V0H5.23c.19,0,.26,0,.25.24s0,.57,0,.86H5.13A2.67,2.67,0,0,0,5,.77.65.65,0,0,0,4.43.38c-.72,0-1.44,0-2.16,0L2.18.4V4c.58,0,1.15,0,1.71,0,.29,0,.3-.27.31-.51h.33V4.94H4.21C4,4.46,4,4.4,3.42,4.4H2.18V8l0,0c.73,0,1.47,0,2.2,0,.42,0,.63-.31.69-.71h.36V8a.56.56,0,0,0,.73-.49V0h2a.23.23,0,0,1,.25.17Q10.23,4,12,7.85l.09.14V1.24a.78.78,0,0,0-.72-.88V0h1.07v8h.74V0h5.47V1.1h-.3A1.51,1.51,0,0,0,18.1.66a.79.79,0,0,0-.46-.27c-.75,0-1.5,0-2.27,0V4H16.8c.47,0,.51,0,.57-.52h.34V4.94c-.19,0-.35.07-.41-.21a.41.41,0,0,0-.41-.32c-.51,0-1,0-1.53,0V8.05h2.05a.74.74,0,0,0,.85-.62c.07-.2.23-.07.37-.11V8H19V0l.22,0h3.31a2.1,2.1,0,0,1,1.85,3.16,2.13,2.13,0,0,1-1.29,1l.44,1L24.8,7.89a.52.52,0,0,0,.57.16.12.12,0,0,0,0-.1,1.15,1.15,0,0,0,0-.19V0ZM6.58,8A2.2,2.2,0,0,0,8,7a12.58,12.58,0,0,0,.65-1.33.44.44,0,0,0,0-.32C8,4,7.44,2.73,6.84,1.42c-.07-.16-.15-.33-.23-.49l0,0ZM21,4.36a2.5,2.5,0,0,0-1.44,1.41,4,4,0,0,0-.18,1.61c0,.48.2.68.68.68h2.63Zm.4-4,.07.21c.47,1,.95,2.07,1.41,3.1.06.13.13.12.24.09a1.75,1.75,0,0,0,1.2-1.61A1.73,1.73,0,0,0,23.16.48,6.92,6.92,0,0,0,21.39.37ZM20.82,4,19.43.93l0,0V5.18c.22-.23.41-.47.64-.67S20.54,4.18,20.82,4ZM8.91,6A4.13,4.13,0,0,1,7.47,8.05h2.4Z"/></g></g></svg>