<svg xmlns="http://www.w3.org/2000/svg" viewBox="0 0 30.46 8.34"><defs><style>.cls-1{fill:#ebbdd7;}</style></defs><g id="Layer_2" data-name="Layer 2"><g id="Layer_1-2" data-name="Layer 1"><path class="cls-1" d="M30.35,1c-.06-.06-.14-.1-.16-.17a.8.8,0,0,0-.78-.58c-.59,0-1.18,0-1.77,0-.24,0-.32.09-.3.34s0,.4,0,.6V8c0,.31,0,.31-.31.31H3.42c-.31,0-.31,0-.31-.31V.68c0-.08,0-.18,0-.23S3,.27,2.87.27c-.57,0-1.14,0-1.7,0A.85.85,0,0,0,.32.8.44.44,0,0,1,.24,1S.15,1,.11,1A.16.16,0,0,1,0,.91Q0,.52,0,.13S.08,0,.13,0A.49.49,0,0,1,.3,0H4.82c.38,0,.41,0,.41.41V7.74a.33.33,0,0,0,.52.32.32.32,0,0,0,.12-.25L5.84.4c0-.36,0-.4.39-.4L9.41,0A1.89,1.89,0,0,1,11,.79a2,2,0,0,1,.37,1.84A2,2,0,0,1,10.06,4c-.18.07-.19.15-.11.31s.17.46.27.69.12.18.16.27c.19.41.35.83.54,1.24s.37.76.56,1.14l.06.11a.43.43,0,0,0,.62.28c.4-.14.47-.22.47-.66,0-2.18,0-4.35,0-6.53a.49.49,0,0,0-.34-.51.33.33,0,0,1-.17-.21c0-.13.12-.14.22-.14h.37c.16,0,.22.08.21.23V6a.48.48,0,0,0,.37.56,1.34,1.34,0,0,0,.4.07h2.94a.65.65,0,0,0,.69-.38.83.83,0,0,0,.06-.35c0-1.84,0-3.68,0-5.52V.13L17.73,0A.6.6,0,0,1,18,0a.3.3,0,0,1,.18.15s-.06.13-.12.16a.65.65,0,0,0-.38.63V7.37c0,.52.16.61.6.67a4.9,4.9,0,0,0,.54,0c.21,0,.26-.08.35-.27s.12-.53.37-.71c.09-.06.13-.19.22-.28a2.23,2.23,0,0,1,1.65-.59H24.2l.08,0a1.37,1.37,0,0,0-.2-1.06A1.79,1.79,0,0,0,23,4.23a3.08,3.08,0,0,0-.68-.08l-1.6,0a1.88,1.88,0,0,1-1.29-.65,2,2,0,0,1-.52-1.75,1.93,1.93,0,0,1,.82-1.3A2.32,2.32,0,0,1,21.09,0h2.53c.17,0,.27.08.25.27s0,.34,0,.5-.1.14-.15.22a1.13,1.13,0,0,1-.12-.18A.89.89,0,0,0,22.86.3c-.65,0-1.3,0-1.95,0a1.77,1.77,0,0,0-1.29.55,1.72,1.72,0,0,0-.5,1.29,1.78,1.78,0,0,0,1.11,1.57,2.5,2.5,0,0,0,.86.14c.38,0,.77,0,1.15,0a2,2,0,0,1,1.06.22,1.65,1.65,0,0,1,1,1c0,.09.13.16.15.26a4.7,4.7,0,0,1,.13.75,2,2,0,0,1,0,.49,1.54,1.54,0,0,1-.42.89c-.14.15-.26.31-.4.47a.15.15,0,0,0,0,.14.2.2,0,0,0,.15.06l1.11,0c.22,0,.28-.06.28-.33V.34c0-.31,0-.34.35-.34h4.52c.3,0,.31,0,.32.31s0,.45,0,.68ZM6.14,6.85c0,.24,0,.41,0,.59a.67.67,0,0,0,.72.65c.67,0,1.34,0,2,0a3.38,3.38,0,0,0,.45,0c.19,0,.23-.11.14-.28S9.16,7.2,9,6.91s-.31-.68-.46-1c-.05-.1-.06-.22-.1-.32a1.09,1.09,0,0,0-.08-.15.76.76,0,0,1-.13-.17l-.33-.79c-.07-.17-.18-.21-.34-.11l-.41.27a2.46,2.46,0,0,0-.79,1A2.44,2.44,0,0,0,6.14,6.85Zm5-4.82a1.88,1.88,0,0,0-.37-1A1.75,1.75,0,0,0,9.34.3l-1,0s-.11,0-.12,0a.25.25,0,0,0,0,.17c.06.15.15.29.22.44.22.49.44,1,.67,1.46l.58,1.23a.23.23,0,0,0,.35.13A1.78,1.78,0,0,0,11.16,2Zm-5,3.21.07,0A2.82,2.82,0,0,1,7.52,4.1c.13,0,.15-.14.09-.28-.27-.61-.53-1.23-.8-1.84-.13-.29-.26-.58-.4-.86A3.24,3.24,0,0,0,6.2.77l0,0Z"/></g></g></svg>