<svg xmlns="http://www.w3.org/2000/svg" viewBox="0 0 43.14 8.39"><defs><style>.cls-1{fill:#89b5b4;}</style></defs><g id="Layer_2" data-name="Layer 2"><g id="Layer_1-2" data-name="Layer 1"><path class="cls-1" d="M16.92,8.05h1.4c.05,0,.12-.09.15-.15a.72.72,0,0,0,0-.21V.34c0-.33,0-.33.33-.33C19.87,0,20.93,0,22,0a2.11,2.11,0,0,1,2.09,1.72A2.07,2.07,0,0,1,22.8,4a2.9,2.9,0,0,1-.78.14c-.41,0-.82,0-1.22.08a2.37,2.37,0,0,0-1.86,1.63,4.49,4.49,0,0,0-.11,1.71.52.52,0,0,0,.5.46,1.11,1.11,0,0,0,.26,0h4.8c.3,0,.31,0,.31-.31V.34C24.7,0,24.7,0,25,0h4.82c.29,0,.29,0,.29.28s0,.41,0,.61-.09.17-.13.17A.27.27,0,0,1,29.81,1c-.21-.5-.36-.61-.89-.61h-1.8c-.2,0-.26.07-.26.27,0,1,0,2.11,0,3.17,0,.2.07.25.26.25.42,0,.85,0,1.27,0s.43-.09.52-.42a.24.24,0,0,1,.18-.13.28.28,0,0,1,.15.15q0,.56,0,1.11s-.06.16-.09.15-.22,0-.24-.08c-.14-.4-.45-.46-.82-.45s-.67,0-1,0c-.16,0-.22.06-.22.21,0,1.09,0,2.17,0,3.25,0,.17.06.23.23.23H29a.75.75,0,0,0,.78-.57c0-.12.11-.2.23-.15a.29.29,0,0,1,.13.2c0,.52,0,.53.55.53S32,8.06,32.6,8l-.16-.1a4.06,4.06,0,0,1-2.25-3.75A4.13,4.13,0,0,1,33.61.07,2.86,2.86,0,0,1,34.19,0H37c.21,0,.29.07.28.27s0,.42,0,.63c0,.06-.09.17-.14.17S37,1,37,1c-.21-.5-.36-.61-.9-.61H34.28A4,4,0,0,0,32.73.7a.32.32,0,0,0-.2.32V7.35a.33.33,0,0,0,.21.34,4.09,4.09,0,0,0,1.57.36c.6,0,1.2,0,1.79,0a.76.76,0,0,0,.82-.56c0-.12.1-.18.24-.17s.13.13.13.22v.22c0,.29,0,.29.29.29s.28,0,.28-.29V.34c0-.33,0-.33.34-.33h4.63c.31,0,.31,0,.31.31V.89c0,.1,0,.2-.15.18A.27.27,0,0,1,42.8.94.76.76,0,0,0,42,.34H40.25c-.19,0-.23.07-.23.24,0,1,0,2.1,0,3.15V8.06c0,.33,0,.33-.34.33H.3c-.3,0-.3,0-.3-.3V.31C0,0,0,0,.3,0,1.37,0,2.43,0,3.5,0A2.1,2.1,0,0,1,5.61,1.72,2.1,2.1,0,0,1,4.28,4c-.19.07-.21.14-.13.31L5.71,7.77a.41.41,0,0,0,.56.28.23.23,0,0,0,.12-.15.75.75,0,0,0,0-.26V.36C6.4,0,6.4,0,6.74,0h4.83c.28,0,.28,0,.28.29s0,.39,0,.58a.26.26,0,0,1-.12.19c-.1,0-.18,0-.23-.13a.73.73,0,0,0-.84-.6H8.84c-.2,0-.28.06-.28.27,0,1,0,2.1,0,3.16,0,.19.06.27.26.26.41,0,.82,0,1.23,0s.53-.06.57-.43c0-.05.11-.11.18-.12s.13.09.14.14c0,.38,0,.75,0,1.13,0,0-.08.14-.12.14s-.21,0-.23-.1a.62.62,0,0,0-.71-.42H8.8c-.17,0-.24,0-.24.22,0,1.08,0,2.16,0,3.25,0,.15,0,.22.22.22h2a.74.74,0,0,0,.74-.56c0-.13.12-.21.25-.16s.1.15.12.23a1.85,1.85,0,0,1,0,.24c0,.11,0,.24.15.25s.25,0,.31-.2A2.13,2.13,0,0,1,13.85,6.3a1.65,1.65,0,0,1,.49-.06h2.92c.3,0,.33,0,.28-.33a1.94,1.94,0,0,0-2-1.74h-1.4a2.06,2.06,0,0,1-2-1.59A2.09,2.09,0,0,1,13.35.16,2.57,2.57,0,0,1,14.13,0H16.9c.2,0,.29.05.27.27s0,.42,0,.62-.09.18-.13.17a.27.27,0,0,1-.22-.12A.74.74,0,0,0,16,.34H14.14a1.74,1.74,0,0,0-.48,3.41,1.93,1.93,0,0,0,.49.06c.58,0,1.17,0,1.75.05a2.12,2.12,0,0,1,1.88,1.56A2.19,2.19,0,0,1,17,7.93ZM3.64,8a1.33,1.33,0,0,0-.08-.24L2.06,4.5c-.06-.14-.12-.17-.27-.1A2.32,2.32,0,0,0,.4,6.13a6.85,6.85,0,0,0-.06,1.2c0,.52.2.72.71.72H3.64ZM2.36.36a.42.42,0,0,0,0,.13c.47,1.05.95,2.09,1.42,3.13a.22.22,0,0,0,.32.12A1.75,1.75,0,0,0,5.27,1.81,1.73,1.73,0,0,0,3.55.34H2.49Zm18.47,0c0,.11.05.18.08.24.47,1,.94,2.05,1.4,3.07a.17.17,0,0,0,.26.1,1.67,1.67,0,0,0,1.18-1.43A1.66,1.66,0,0,0,23,.6,1.72,1.72,0,0,0,22,.34Zm-2,4.9.11-.13a2.65,2.65,0,0,1,1.17-1c.18-.08.19-.17.11-.33L19,1.05,18.82.81ZM.35,5.17l.06,0a.3.3,0,0,1,0-.1,2.73,2.73,0,0,1,1.21-1c.14-.06.15-.13.09-.26L.44,1A.44.44,0,0,0,.35.85Z"/></g></g></svg>