<svg xmlns="http://www.w3.org/2000/svg" viewBox="0 0 144.62 40.91"><g id="Layer_2" data-name="Layer 2"><g id="Layer_1-2" data-name="Layer 1"><path d="M102,30.67c0-.25,0-.49,0-.73q0-12.61,0-25.24a2.91,2.91,0,0,0-2.62-3.21c-.16,0-.3-.12-.49-.19V.44c0-.11,0-.21.09-.41h4.48a17.13,17.13,0,0,1,.05,2.26c0,.72,0,1.45,0,2.18V31.23a13.44,13.44,0,0,0,1.33-.51,1.69,1.69,0,0,0,.91-1.33c0-.42.09-.83.09-1.25q0-13.53,0-27.08v-1a5.54,5.54,0,0,1,.67-.06c4.39,0,8.78-.08,13.16,0A18,18,0,0,1,131,4.15a16.25,16.25,0,0,1,5.26,7.7,18.11,18.11,0,0,1,.59,3.19,14,14,0,0,1-.33,4.65,15.1,15.1,0,0,1-4.23,7.56,17.75,17.75,0,0,1-9.73,5,23.59,23.59,0,0,1-3.74.31H13.16a1.37,1.37,0,0,1-.12-.92q0-13.55,0-27.08A5.81,5.81,0,0,1,13,4,2.3,2.3,0,0,0,10.58,1.4c-1.95-.06-3.91,0-5.87,0A3.07,3.07,0,0,0,2.09,2.64a10.67,10.67,0,0,0-.75,1.55H0V.07H22.22c0,.94,0,1.88,0,2.82V31.13h2.31c.06-1,0-1.93,0-2.87s0-1.84,0-2.77V.06l.72,0C30.09,0,34.9,0,39.7.05a8.67,8.67,0,0,1,7.06,3.56,7.65,7.65,0,0,1-1,10.24,8.67,8.67,0,0,1-3.37,2c-.21.06-.42.14-.72.24,2.5,5,5,10.05,7.46,15.09h2.26c.08-2.1,0-4.16,0-6.21s0-4.14,0-6.21V.14C52.11,0,73.48,0,74.33.12v4A3.71,3.71,0,0,1,73,4.21,1.35,1.35,0,0,1,72.87,4a3.18,3.18,0,0,0-3.35-2.56c-1.5,0-3,0-4.52,0H60.81l-.14.1a.11.11,0,0,0,0,.08,1.86,1.86,0,0,0,0,.33V15.53a4.34,4.34,0,0,0,.58.07H71a2.68,2.68,0,0,0,.89-.15,1.35,1.35,0,0,0,1-1.39v-.52a3.31,3.31,0,0,1,1.32-.07,26.62,26.62,0,0,1,.09,5.61H73l-.18-.53A2.28,2.28,0,0,0,70.53,17c-3.25,0-6.49,0-9.73,0,0,0,0,0-.07,0l-.07,0a.21.21,0,0,0,0,.07l0,13.33c0,.17,0,.33,0,.5a1,1,0,0,0,.13.22H74.6a3.74,3.74,0,0,0,1.62-.3A2,2,0,0,0,77.44,29c0-.22,0-.45,0-.67V.14c.67-.13,8-.18,9.22-.05q7.57,15.26,15.16,30.59Zm13,.44c.25,0,.41.07.57.07,1.64,0,3.29-.05,4.93-.12a15.6,15.6,0,0,0,6-1.5,15.21,15.21,0,0,0,7.77-7.84,13.25,13.25,0,0,0,1-7.6,14.4,14.4,0,0,0-5.92-9.46,17.22,17.22,0,0,0-9.75-3.26c-1.31-.06-2.63,0-3.94,0a3.11,3.11,0,0,0-.57.1ZM78.94,3.32V30.37c0,.11,0,.22,0,.33s0,.05,0,.07l.1.1a9.59,9.59,0,0,0,6.37-4.57c.93-1.62,1.69-3.33,2.51-5C86.34,17.7,79.51,4,78.94,3.32Zm-39,27.79c-2.37-4.78-4.7-9.48-7-14.14a.82.82,0,0,0-.23,0,2.64,2.64,0,0,0-.4.12,10.13,10.13,0,0,0-4.16,3,8.37,8.37,0,0,0-2,4.6,43.81,43.81,0,0,0-.05,4.44,1.82,1.82,0,0,0,1.19,1.76,4.33,4.33,0,0,0,1.45.31c3.52,0,7,0,10.55,0C39.45,31.18,39.64,31.14,39.94,31.11ZM34.44,1.43c.89,2,1.91,3.9,2.85,5.82,1.22,2.49,2.46,5,3.7,7.48a7.39,7.39,0,0,0,3.16-1.41A6.37,6.37,0,0,0,45,3.75,7.69,7.69,0,0,0,39.38,1.4c-1.45,0-2.91,0-4.36,0C34.86,1.39,34.7,1.41,34.44,1.43ZM32.23,15.56c-2-4.1-4-8.13-6.08-12.27-.17,1.24-.13,16.35,0,16.94a11.93,11.93,0,0,1,2.62-2.82A12.94,12.94,0,0,1,32.23,15.56ZM82.56,31.14c2.42.14,9.6.08,10.28-.09l-4-8c-.21.37-.35.6-.47.84-.38.74-.77,1.48-1.13,2.24a10.65,10.65,0,0,1-4.2,4.64A4.24,4.24,0,0,0,82.56,31.14Z"/><path d="M98,37.25h.91l.7,2.13.79-2.1h.74l.78,2.14.69-2.15h.9l-1.12,3.47c-.18,0-.32,0-.45,0a4,4,0,0,1-.44,0l-.73-2.11-.74,2.12h-.88Z"/><path d="M144.61,3.71l-.91-.07V2.12l-.14-.05c-.17.25-.34.52-.53.76a.46.46,0,0,1-.82,0,3.33,3.33,0,0,0-.67-.76V3.64l-.86.06c-.05-1.21,0-2.37,0-3.55a.56.56,0,0,1,.86.17c.26.4.52.79.79,1.18.09.13.2.24.35.42.38-.55.73-1,1.06-1.55a.61.61,0,0,1,.89-.24C144.62,1.3,144.62,2.48,144.61,3.71Z"/><path d="M83.59,39a1.83,1.83,0,0,1,1.87-1.91A1.87,1.87,0,0,1,87.35,39a1.81,1.81,0,0,1-1.86,1.93A1.74,1.74,0,0,1,83.59,39Zm2.88,0a1,1,0,0,0-1-1.06,1,1,0,0,0-1,1.13,1,1,0,1,0,2-.07Z"/><path d="M91.14,40.69a1,1,0,0,1-1.42-.52c-.18-.32-.4-.54-.86-.32l-.06.89H88V37.25c.65,0,1.29,0,1.91,0a1.21,1.21,0,0,1,.84,2,3.08,3.08,0,0,1-.35.39Zm-2.28-1.77a4.25,4.25,0,0,0,.89,0,.58.58,0,0,0,.38-.35.57.57,0,0,0-.25-.46.86.86,0,0,0-1,0Z"/><path d="M112.29,39.84v.78c-.25.27-.52.12-.81.16V37.25c.64,0,1.27,0,1.9,0a1.07,1.07,0,0,1,1,.74,1.21,1.21,0,0,1-.3,1.37c-.09.07-.19.13-.3.2l.79,1.13a1.08,1.08,0,0,1-1.42-.53C112.92,39.78,112.89,39.79,112.29,39.84Zm0-.94a5,5,0,0,0,1,0,.6.6,0,0,0,.32-.41c0-.11-.13-.31-.25-.38a.9.9,0,0,0-1,0Z"/><path d="M97.81,38.2c-.35.07-.66.17-1-.15-.14-.14-.45-.13-.69-.13a.38.38,0,0,0-.26.25.39.39,0,0,0,.2.32,5.53,5.53,0,0,0,.79.24c.75.22,1,.5,1,1s-.39,1-1.07,1.1a1.68,1.68,0,0,1-2-1.17c.38-.1.72-.23,1,.19s.59.27.92.2a.31.31,0,0,0,.2-.22.3.3,0,0,0-.12-.28,1.93,1.93,0,0,0-.46-.16,5.56,5.56,0,0,1-.73-.18,1,1,0,0,1-.31-1.77,1.53,1.53,0,0,1,1.41-.33C97.19,37.3,97.74,37.45,97.81,38.2Z"/><path d="M76.42,39.63h.87a.81.81,0,0,0,1,.47c.11,0,.26-.15.27-.25a.47.47,0,0,0-.19-.32,1.56,1.56,0,0,0-.4-.11,4.61,4.61,0,0,1-.73-.19,1,1,0,0,1-.44-1.58,1.48,1.48,0,0,1,1.42-.54,1.32,1.32,0,0,1,1.29,1.11c-.35,0-.7.18-1-.19a.49.49,0,0,0-.29-.13c-.24,0-.55-.1-.64.22s.19.41.45.48.59.14.88.24a.85.85,0,0,1,.64.79,1.05,1.05,0,0,1-.55,1A1.83,1.83,0,0,1,76.42,39.63Z"/><path d="M111,40.74l-.92,0c-.12-.63-.58-.59-1-.58s-.88-.09-1,.54h-1l1.49-3.49h.89Zm-2.44-1.29c.41-.07.68.09.93-.17l-.43-1Z"/><path d="M106.74,40.06l0,.69h-2.53a12.88,12.88,0,0,1,0-3.48h2.49s.09.06.09.1,0,.32,0,.54H105v.69l1.5.06,0,.71-1.57.06v.63Z"/><path d="M81.11,40l-.06.7h-.78V37.25c.62,0,1.23,0,1.83,0a1.06,1.06,0,0,1,1,1,1.2,1.2,0,0,1-.59,1.43A9.49,9.49,0,0,1,81.11,40Zm0-1a4.77,4.77,0,0,0,.76,0,.49.49,0,0,0,.4-.46.47.47,0,0,0-.3-.54.85.85,0,0,0-.86,0Z"/><path d="M139,.89V3.63l-.84.08V.9L137,.8,137,.06C138,0,139,0,140.09,0l.07.77Z"/><path d="M94.45,37.91,93.38,38v2.71l-.81.06c-.18-.92,0-1.81-.13-2.76l-1.07-.13,0-.53s.07-.09.09-.09h3Z"/></g></g></svg>