<svg xmlns="http://www.w3.org/2000/svg" viewBox="0 0 47.39 8.62"><defs><style>.cls-1{fill:#7891ca;}</style></defs><g id="Layer_2" data-name="Layer 2"><g id="Layer_1-2" data-name="Layer 1"><path class="cls-1" d="M35.3,8.22V1.39c0-.66-.07-.73-.72-.85V.19h1.1V7.63h0l.39-.85c1-2.14,2-4.27,2.92-6.41a.32.32,0,0,1,.34-.21h2l-3.67,8h4.19V.46c0-.28,0-.28.28-.28h5.22V1.25c-.29.08-.32.07-.42-.2A.63.63,0,0,0,46.4.58c-.76,0-1.51,0-2.28,0V4.2h1.54c.29,0,.41-.11.42-.38s.11-.17.23-.17.17.05.17.18c0,.42,0,.84,0,1.28h-.36c-.19-.47-.27-.53-.78-.53H44.19l-.07,0v3.6h2.11A.7.7,0,0,0,47,7.63c.06-.25.24-.1.4-.15v1s-.07.08-.11.1a.38.38,0,0,1-.15,0H0V8.23H.23A.52.52,0,0,0,.7,7.71a1.76,1.76,0,0,0,0-.23v-7C.7.18.7.18,1,.18H3.89A4.19,4.19,0,0,1,8.13,4.63,4.07,4.07,0,0,1,6,8.07l-.23.14H8.94v-8h5.29c.18,0,.24,0,.23.23s0,.56,0,.87H14.1a1.89,1.89,0,0,0-.18-.41.57.57,0,0,0-.5-.29H11.26l-.08,0V4.19h1.67a.31.31,0,0,0,.3-.36c0-.18.09-.18.22-.18s.18.06.18.19c0,.32,0,.64,0,1s0,.36-.36.32c-.17-.46-.27-.53-.76-.53H11.34c-.12,0-.18,0-.18.16,0,1.12,0,2.25,0,3.37a.65.65,0,0,0,0,.11h2c.6,0,.78-.14.94-.71.36-.06.37,0,.37.3v.41h1a4.34,4.34,0,0,1,.2-.64,2,2,0,0,1,1.87-1.35c1,0,2,0,3,0,.26,0,.27,0,.24-.27a1.9,1.9,0,0,0-2-1.73H17.49A2.11,2.11,0,0,1,16.77.11,1.61,1.61,0,0,1,17.3,0h3.17V1.08c-.32.06-.32.06-.4-.21a.67.67,0,0,0-.63-.48c-.7,0-1.4,0-2.1,0a1.69,1.69,0,0,0-1.6,1.74,1.72,1.72,0,0,0,1.72,1.7h1.4a2.26,2.26,0,0,1,2.33,1.92,2.24,2.24,0,0,1-1,2.31L20,8.22h1.67c.2,0,.48.06.58,0s.05-.39.05-.6c0-2.36,0-4.71,0-7.07V.19h5.27c.19,0,.25,0,.24.24a5.42,5.42,0,0,0,0,.57c0,.34,0,.34-.35.29-.05-.12-.06-.27-.14-.35S27,.6,26.84.59c-.76,0-1.53,0-2.31,0V4.2h1.55c.29,0,.41-.11.43-.38s.1-.17.22-.17.16.07.16.19V5.11h-.37c-.07-.46-.38-.55-.79-.53s-.79,0-1.2,0V8.21h1.94c.64,0,.79-.11,1-.71.36-.06.36,0,.36.29s0,.42.43.42h.28V.46c0-.28,0-.28.3-.28H32A2.11,2.11,0,0,1,33,4.23l-.31.11.49,1.07,1.2,2.64a.24.24,0,0,0,.27.17ZM2.93,4.4V7.21c0,.28,0,.56,0,.84,0,.06.09.16.13.16a11.65,11.65,0,0,0,1.57-.06A3.79,3.79,0,0,0,7.7,3.8,3.67,3.67,0,0,0,5,.72,4.47,4.47,0,0,0,3.88.57c-.3,0-.61,0-.92,0,0,.3,0,.6,0,.9Zm27.6.17A2.45,2.45,0,0,0,29.1,5.9a4.16,4.16,0,0,0-.19,1.64c0,.5.18.68.68.68h2.6Zm.38-4L32.48,4l.18-.06A1.72,1.72,0,0,0,32.78.7,6.05,6.05,0,0,0,30.91.56Zm-2,4.76a3.52,3.52,0,0,1,1.43-1.13L29,1.15h0Z"/></g></g></svg>